<?xml version="1.0" encoding="UTF-8" standalone="no"?>
<svg
   xmlns:svg="http://www.w3.org/2000/svg"
   xmlns="http://www.w3.org/2000/svg"
   id="svg4155"
   style="fill:#f00027;stroke:#000000;stroke-width:1.0424"
   viewBox="0 0 193 118"
   version="1.1">
  <path
     id="path4323"
     d="m 152.02,80.596 c 6.0411,-1.1328 3.6526,-13.498 6.2218,-4.8725"
     style="fill:none" />
  <path
     id="path4337"
     d="m 112.14,60.713 c 20.568,-8.9822 24.824,-1.7146 32.652,-3.8164 16.157,-4.9042 14.782,-12.774 9.117,-22.05 7.1105,3.5113 12.297,10.39 17.174,17.81 L 175,73 h -55 z" />
  <path
     id="path4337-8"
     d="M 82.662,60.076 C 74.9588,49.145 56.69,60.58862 48.102,58.3798 34.66,54.9226 34.041,42.1238 40.0451,35.0578 c -7.11,3.51 -12.296,10.389 -17.173,17.809 L 25,103 Z" />
  <path
     id="path4286"
     d="M 80.734,60.881 C 57.678,53.218 42.353,67.584 37.706,67.028 19.906,64.9 19.886,51.736 24.663,40.042 20.6457,46.1725 15.7024,46.7473 13.119,61.481 11.0353,59.3512 8.6688,58.7291 7.7218,50.537 2.6739,66.441 5.9116,70.137 8.1708,75.274 6.3178,74.053 4.4494,72.811 1.4243,70.027 2.061,77.499 4.6853,80.996 6.8215,85.469 L 1.4243,82.17 c 8.9115,24.403 21.884,33.577 37.18,34.033 15.053,-1.3917 22.691,-3.8414 31.634,-5.9969"
     style="fill:#cc002b" />
  <path
     id="path4309"
     d="m 74.329,21.664 c -7.0487,0.76675 -11.604,-5.2872 -15.934,-9.4323 5.4962,3.3921 11.86,6.5906 19.715,4.8725"
     style="fill:#f8db00" />
  <path
     id="path4303"
     d="M 69.233,78.528 C 71.6651,71.3706 80.41,59.56 92.171,49.293 c 3.264,-3.5482 3.1929,-7.0964 3.1484,-10.645 -0.45638,-5.0218 -3.3879,-5.8004 -5.6971,-7.646 -11.796,-4.0102 -12.338,-6.4683 -16.641,-9.4451 5.4305,-2.4895 8.042,-8.3688 3.2983,-12.294 2.9485,-2.0979 5.9195,-3.5314 8.8454,-3.1484 14.21,1.8603 30.328,16.461 25.202,41.652 -1.873,7.6187 -1.0695,9.9333 -0.31491,10.821 1.6842,1.981 3.4641,4.8801 4.6476,4.1978 3.7305,-2.1507 9.595,-2.9503 14.393,-2.8485 8.1181,-0.46844 23.683,7.4606 27.136,7.4961 8.7998,0.09052 19.918,-9.0276 13.193,-26.686 4.6398,6.1252 9.3291,10.226 11.34,20.821 3.215,-1.9445 4.2931,-6.0258 5.6017,-9.8767 3.8405,8.5943 2.7608,16.369 -0.14992,23.838 1.8446,-1.0339 3.7455,-2.2647 6.1468,-5.2473 0.35253,6.5885 -3.3462,10.341 -5.5471,15.142 l 4.6476,-2.5487 c -5.5864,16.766 -14.633,30.86 -33.963,33.601 -12.177,-2.7215 -23.787,-6.5152 -38.38,-6.0151"
     style="fill:#cc002b" />
  <path
     id="path4307"
     d="M 85.8,15.234 91.8416,17.7253 86,11.2 Z"
     style="fill:#680000;stroke:none" />
  <path
     id="path4266"
     d="m 91.63,16.798 c 0.22095,0.55629 1.5656,0.2464 1.6697,-0.87459 l 0.68907,-0.0265 c -2.4088,5.7338 -4.8841,-3.1624 -7.6063,-3.2598 0.08211,1.5912 0.28663,3.2617 -2.2527,3.1538 -1.2192,-0.0472 -1.9471,-0.69752 -2.0672,-2.0937 0.22285,-1.9984 1.0241,-1.9537 1.7227,-2.287 3.9347,-1.0894 5.9261,0.5572 7.8448,5.3878 z"
     style="fill:#000000;stroke:none" />
  <ellipse
     id="path4268"
     rx="0.94638997"
     ry="0.9745"
     cy="13.731003"
     cx="84.003998"
     style="fill:#ffffff" />
  <path
     id="path4282"
     d="m 87.71,93.5204 c 3.71,-10.926 21.93,-19.108 5.171,-33.905 19.869,4.365 19.679,26.14 23.599,44.147"
     style="fill:#f3611e" />
  <path
     id="path4270"
     d="m 68.572,93.6828 c -6.7998,-9.1892 -1.185,-16.25 1.2721,-23.853 1.106,7.9144 4.4939,12.095 8.6929,14.948 1.8306,-11.02 6.8081,-14.315 11.661,-17.916 -5.262,5.7694 -4.7357,15.312 3.6044,21.096 11.8,8.5291 11.813,9.5122 14.1,13.569 2.6752,-3.7331 5.4975,-7.1473 4.8765,-18.022 5.3567,-3.0639 5.3818,-8.7937 7.1028,-13.675 7.0638,11.521 6.4044,18.71 1.9082,23.747 l 6.6787,-3.8164 c -1.0411,4.5898 -3.5942,8.8015 -6.8907,12.827 l 4.0284,-1.0601 c -6.39,11.462 -15.44,18.146 -30.005,14.948 -19.074,1.4339 -26.877,-5.4253 -31.061,-14.948 1.4372,-0.18876 3.4955,0.28844 4.6645,0.63606 -4.5171,-3.1006 -5.2928,-7.864 -7.5268,-11.979 2.2309,1.5624 4.3923,3.5412 6.8907,3.4984 z"
     style="fill:#f10027" />
  <path
     id="path4272"
     d="m 78.643,84.566 c -0.61005,4.3465 0.29655,9.223 0.9541,13.569"
     style="fill:none" />
  <path
     id="path4274"
     d="m 86.329,112.553 c -9.8577,-3.0009 -11.868,-10.711 -11.184,-20.036 1.6549,3.1239 3.2277,6.3462 6.9437,6.9968 -0.513,9.422 2.123,9.929 4.24,13.039 z"
     style="fill:#f3611e" />
  <path
     id="path4276"
     d="m 82.067,99.51341 0.42404,-3.0213 c 1.3693,6.3638 4.2665,6.1066 6.8377,7.2618"
     style="fill:none" />
  <path
     id="path4278"
     d="m 90.093,84.513 c 4.8016,-2.3764 2.469,-6.7911 2.8093,-10.442 4.362,5.5516 5.6177,11.021 4.6115,16.432" />
  <path
     id="path4315"
     d="M 63.642,14.78 C 62.4076,9.8726 58.1926,6.7486 53.8221,4.585 c 3.1332,0.2065 3.632,-1.6176 13.643,7.871 2.9053,2.5022 5.4927,3.8444 9.1922,4.5598 -3.5925,1.2888 -9.1425,0.63799 -13.015,-2.236 z"
     style="fill:#d36224" />
  <path
     id="path4319"
     d="M 54.197,4.81 50.4489,4.66008 c 1.131,-4.4021 10.725,-4.0906 12.144,-2.9235 4.4675,3.0996 12.099,9.8161 13.692,7.456 2.6182,1.7732 3.2036,4.2642 1.8252,7.2364 -3.635,-0.18966 -7.0825,-1.0669 -10.12,-3.4482 -9.2676,-9.0343 -11.792,-8.9558 -13.793,-8.1708 z"
     style="fill:#ecd404;stroke-linejoin:bevel" />
  <path
     id="path4321"
     d="m 155.47,89.3668 c 9.4022,-3.0109 10.572,-12.025 8.6955,-21.964 -1.9303,6.235 -3.6671,6.8379 -5.697,7.721 0.68118,5.7431 0.48481,11.276 -2.9985,14.243 z" />
  <path
     id="path4327"
     d="m 151.84,80.431 c 2.6089,-0.54829 4.5069,-3.017 5.5656,-8.2159 l 1.0071,3.3924"
     style="fill:none;stroke-linecap:square" />
  <path
     id="path4331"
     d="m 164.99,77.148 c 2.2325,-1.7222 3.8633,-3.9257 5.0974,-6.4467 l 1.0085,6.5928"
     style="fill:none;stroke-linejoin:bevel" />
  <path
     id="path4329"
     d="m 170.46,73.175 c 3.1159,-1.7587 5.01,-5.0884 6.7465,-8.6206 0.27836,7.385 1.6692,15.057 -3.973,20.914 2.3126,-0.86245 4.2859,-1.9479 6.3717,-4.1229 -1.5477,4.2272 -2.6801,9.1234 -6.5216,12.968 1.0925,-0.2549 1.6993,0.29952 3.898,-1.7991 -2.7869,12.482 -11.631,14.392 -19.415,17.841 3.4998,-3.4993 7.0692,-6.8736 9.3702,-11.169 -1.6049,0.17778 -3.1387,0.32 -4.3478,0.29984 4.2257,-2.9946 6.3175,-7.1531 8.3957,-11.319 -1.8951,1.1928 -4.0788,1.9527 -6.3717,2.5487 4.7844,-4.4909 5.5982,-10.881 5.847,-17.541 z" />
  <path
     id="path4333"
     d="m 143.42,95.326 c 5.2282,0.72272 6.4636,-2.5474 8.799,-4.7175 l -0.47705,3.5514"
     style="fill:none;stroke-linejoin:bevel" />
  <path
     id="path4335"
     d="m 151.74,94.0008 c 5.1655,0.18285 6.358,-2.3527 9.117,-3.8164 -4.6297,14.378 -12.186,15.144 -17.916,14.471 4.0782,-2.7924 7.9405,-5.622 8.799,-10.654 z" />
  <path
     id="path4321-6"
     d="M 36.588,88.609 C 27.1858,85.5981 26.016,76.584 27.8925,66.645 c 1.9303,6.235 3.6671,6.8379 5.697,7.721 -0.68118,5.7431 -0.48481,11.276 2.9985,14.243 z" />
  <path
     id="path4327-0"
     d="m 40.161,79.674 c -2.6089,-0.54829 -4.5069,-3.017 -5.5656,-8.2159 l -1.0071,3.3924"
     style="fill:none;stroke-linecap:square" />
  <path
     id="path4331-0"
     d="m 27.068,76.39 c -2.2325,-1.7222 -3.8633,-3.9257 -5.0974,-6.4467 l -1.0085,6.5928"
     style="fill:none;stroke-linejoin:bevel" />
  <path
     id="path4329-1"
     d="m 21.596,72.417 c -3.1159,-1.7587 -5.01,-5.0884 -6.7465,-8.6206 -0.27836,7.385 -1.6692,15.057 3.973,20.914 -2.3126,-0.86245 -4.2859,-1.9479 -6.3717,-4.1229 1.5477,4.2272 2.6801,9.1234 6.5216,12.968 -1.0925,-0.25491 -1.6993,0.29951 -3.898,-1.7991 2.7869,12.482 11.631,14.392 19.415,17.841 -3.4998,-3.4993 -7.0692,-6.8736 -9.3702,-11.169 1.6049,0.17778 3.1387,0.32001 4.3478,0.29984 -4.226,-2.9939 -6.318,-7.1524 -8.396,-11.318 1.895,1.192 4.079,1.9522 6.372,2.5482 -4.784,-4.4912 -5.598,-10.881 -5.847,-17.541 z" />
  <path
     id="path4333-9"
     d="m 48.617,94.4557 c -5.2282,0.72271 -6.4636,-2.5474 -8.799,-4.7175 l 0.47705,3.5514"
     style="fill:none;stroke-linejoin:bevel" />
  <path
     id="path4335-5"
     d="m 40.32,93.243 c -5.1655,0.18285 -6.358,-2.3527 -9.117,-3.8164 4.6297,14.378 12.186,15.144 17.916,14.471 -4.0782,-2.7924 -7.9405,-5.6219 -8.799,-10.654 z" />
  <path
     id="path4396"
     d="m 40.404,44.315 c 1.6623,-3.9017 4.5029,-4.66 6.8215,-5.772 -3.7392,5.0915 -1.1352,7.1822 -2.024,9.1453 -1.7661,3.901 -6.2376,0.007 -4.7975,-3.3733 z"
     style="fill:#f3611e" />
  <path
     id="path4396-2"
     d="m 160.16,28.972 c 1.9658,-5.2122 5.3248,-6.2252 8.0667,-7.7108 -4.4218,6.8016 -1.3424,9.5946 -2.3934,12.217 -2.0885,5.2113 -7.3762,0.009 -5.6733,-4.5063 z"
     style="fill:#fe9d2a" />
  <path
     id="path4396-3-0"
     d="m 32.26,30.44 c -1.6623,-3.9017 -5.563,-6.9922 -7.8816,-8.1043 3.7392,5.0915 2.8314,9.0904 3.7201,11.053 1.7661,3.901 5.6015,0.43105 4.1615,-2.9492 z"
     style="fill:#f3611e" />
  <path
     id="path4396-3"
     d="m 30.776,34.151 c -1.6623,-3.9017 -6.1991,-4.872 -8.5177,-5.984 3.7392,5.0915 2.8314,7.3942 3.7201,9.3573 1.7661,3.901 6.2376,0.007 4.7975,-3.3733 z" />
  <path
     id="path4458"
     d="m 148.61,47.091 c 0.29579,2.738 5.1277,2.9758 5.9366,-0.053 -0.21994,-6.6587 -5.0866,-8.6457 -10.018,-10.177 2.6776,3.4275 4.0814,5.0037 4.0814,10.23 z" />
</svg>
